# xmcd CD database file
#
# Track frame offsets:
#	150
#	21607
#	41120
#	60925
#	82237
#	98052
#	116232
#	134292
#	151542
#	174500
#	195397
#	220482
#	240325
#	262890
#
# Disc length: 3829 seconds
#
# Revision: 2
# Processed by: cddbd v1.4PL0 Copyright (c) Steve Scherf et al.
# Submitted via: CDex 1.51
#
DISCID=ba0ef30e
DTITLE=Dulfer - The Gratest
DYEAR=1998
DGENRE=Jazz
TTITLE0=Big boy
TTITLE1=Streetbeats
TTITLE2=Winning Streak
TTITLE3=Micky Mouth
TTITLE4=Hyperbeat
TTITLE5=Dig!
TTITLE6=Streetfire
TTITLE7=Grandslam
TTITLE8=Double Dutch
TTITLE9=Micky Mouth (Ace Mix)
TTITLE10=A Night at the Sheraton
TTITLE11=Streetbeats (Human Resource Dance Mix)
TTITLE12=No More Dig
TTITLE13=Hyperbeat (Ace Mix)
EXTD=YEAR: 1998
EXTT0=
EXTT1=
EXTT2=
EXTT3=
EXTT4=
EXTT5=
EXTT6=
EXTT7=
EXTT8=
EXTT9=
EXTT10=
EXTT11=
EXTT12=
EXTT13=
PLAYORDER=
